<svg xmlns="http://www.w3.org/2000/svg" width="403" height="57.6" viewBox="-33.4 0 403 57.6"><path fill="#47a4a5" d="M3.4 47.6a18 18 0 0 1-11.1 8.9q-3.7 1-7.5 1.1-5.1 0-10-1.4t-8.2-4.3l6.1-10q2.8 2.3 5.5 3 2.5.8 5.1.8 2 0 3.6-.5a6 6 0 0 0 2.8-1.5q1.2-1 1.9-2.9c.7-1.9.7-2.7.7-4.5V.5h13v39q-.2 4.7-1.9 8.1M41.1.5q4.8 0 8.1 1.5a15 15 0 0 1 8.6 9.8 21 21 0 0 1-.2 13.2q-1.2 3.2-3.5 5.7-2.4 2.5-5.7 4.1t-7.7 1.5H29.4v20.6h-13V.5zM29.4 24.9H39q3.7 0 5.2-1.9a7 7 0 0 0 1.6-4.5q0-2.7-1.5-4.5T39 12.1h-9.6zm72.9 28.3a27 27 0 0 1-22.7 3.3 22 22 0 0 1-7.1-3.3 17 17 0 0 1-5.2-5.6q-2-3.4-2-8.1v-21a16 16 0 0 1 7-13.9q3.2-2.3 7.1-3.5 4-1.2 8-1.1 5 0 10 1.4a21 21 0 0 1 8.4 4.4l-6.3 10.1a16 16 0 0 0-5.9-3.2 26 26 0 0 0-5.9-.8q-1.6 0-3.3.5a9 9 0 0 0-5.3 4.2 9 9 0 0 0-.9 4.1v16q0 2.4.8 4.1t2.1 2.7A8 8 0 0 0 84 45a12 12 0 0 0 6.3.1q1.6-.4 3-1.6v-7.6h-7.8v-11h20.8v24.2q-1.4 2.5-4 4.1"/><path fill="#556a72" d="M125.3 25.8v-9.5h5L132.2 6h9.8v10.3h9.1v9.5H142v15.7q0 3 1.3 3.9t4.4.9l5.7-.2 1 9.8a22 22 0 0 1-5.5 1.3l-5.1.3q-4.3 0-7-1a9 9 0 0 1-6.1-7.1 24 24 0 0 1-.5-5.5v-18zM184 45.5l-.4 1.2-.5 1L182 50q-.7 1.5-2.1 3-1.3 1.5-3.3 2.5a8 8 0 0 1-4.7.6q-4.4-.9-7.4-3.4-1.8-1.5-3.1-3.7l-.6-1.3-.5-1.4V46l-.2-1-.1-.7-.1-.7v-1.2l-.1-.9v-1.4q0-3.7 1.3-6.8t3.8-4.9q2.4-2 5.8-3 3-.8 6.5-1v-4.1l9.7 9.7-9.7 9.7v-4.4l-1.7.4-1.6.8q-2 1.4-2 4.5l.1.3.2.8h.1l.2.7.2.3v.3l.2.3.2.2.2.2.4.3q2 1.3 4.3 1.3t4.2-1.3q2-1.2 2-4.5V36l.2 1.8.1 2.5-.1 2-.2 1.6zm-21.3-19.6q-1.7 1.3-3 3.1.3-2.5 1.4-5.1.6-1.5 1.7-2.7 1-1.2 2.3-2.2a17 17 0 0 1 7.2-3.3l1.4-.3v6.1q-2.4.2-4.2.8-3.8 1.2-6.8 3.6m28.7-6.8q5 4 4.9 11.9v9.9q0 2-.3 3.6a12 12 0 0 1-1 3.2q-1.4 3-3.8 4.9a15 15 0 0 1-5.8 3l-2.7.6-2.9.4a23 23 0 0 0 3-3.2q2.5-3.2 3-7.1l.2-1.4.1-1.5-.1-1.9q-.1-1.5-.7-3.9l-.2-.8-.2-.8 6.2-6.2-15-14.9.9-.1h.9q8.5.3 13.5 4.3"/><path fill="#e37863" d="M246.8.5q4.8 0 8.1 1.5a15 15 0 0 1 8.6 9.8 21 21 0 0 1-.2 13.2q-1.2 3.2-3.5 5.7-2.4 2.5-5.7 4.1t-7.7 1.5h-11.3v20.6h-13V.5zm-11.7 24.4h9.6q3.7 0 5.2-1.9a7 7 0 0 0 1.6-4.5q0-2.7-1.5-4.5t-5.3-1.9h-9.6zm49.1-.4V57h-13V.5h11.7l9.4 13.7L304.7 33h.2V.5h13V57h-11.7l-11.7-17.2-10-15.3zm81.4 28.7a27 27 0 0 1-22.7 3.3 22 22 0 0 1-7.1-3.3 17 17 0 0 1-5.2-5.6q-2-3.4-2-8.1v-21a16 16 0 0 1 7-13.9q3.2-2.3 7.1-3.5 4-1.2 8-1.1 5 0 10 1.4a21 21 0 0 1 8.4 4.4l-6.3 10.1a16 16 0 0 0-5.9-3.2 26 26 0 0 0-5.9-.8q-1.7 0-3.3.5a9 9 0 0 0-5.3 4.2 9 9 0 0 0-.9 4.1v16q0 2.4.8 4.1t2.1 2.7a8 8 0 0 0 2.9 1.5 12 12 0 0 0 6.3.1q1.7-.4 3-1.6v-7.6h-7.8v-11h20.8v24.2a13 13 0 0 1-4 4.1"/></svg>